HIERARCHY
ROOT Hips
{
	OFFSET	0.00	0.00	0.00
	CHANNELS 6 Xposition Yposition Zposition Zrotation Xrotation Yrotation
	JOINT LeftUpLeg
	{
		OFFSET	 0.126116	-0.014019	-0.065224
		CHANNELS 3 Zrotation Xrotation Yrotation
		JOINT LeftLeg
		{
			OFFSET	 0.000000	 0.000000	 0.569914
			CHANNELS 3 Zrotation Xrotation Yrotation
			JOINT LeftFoot
			{
				OFFSET	 0.000000	 0.000000	 0.544423
				CHANNELS 3 Zrotation Xrotation Yrotation
				JOINT LeftToeBase
				{
					OFFSET	 0.000000	 0.000000	 0.207117
					CHANNELS 3 Zrotation Xrotation Yrotation
					End Site
					{
						OFFSET	 0.000000	 0.000000	 0.207117
					}
				}
			}
		}
	}
	JOINT RightUpLeg
	{
		OFFSET	-0.124023	-0.008373	-0.065224
		CHANNELS 3 Zrotation Xrotation Yrotation
		JOINT RightLeg
		{
			OFFSET	 0.000000	 0.000000	 0.570047
			CHANNELS 3 Zrotation Xrotation Yrotation
			JOINT RightFoot
			{
				OFFSET	 0.000000	 0.000000	 0.544354
				CHANNELS 3 Zrotation Xrotation Yrotation
				JOINT RightToeBase
				{
					OFFSET	 0.000000	 0.000000	 0.207540
					CHANNELS 3 Zrotation Xrotation Yrotation
					End Site
					{
						OFFSET	 0.000000	 0.000000	 0.207540
					}
				}
			}
		}
	}
	JOINT Spine
	{
		OFFSET	 0.000184	-0.007763	 0.117403
		CHANNELS 3 Zrotation Xrotation Yrotation
		JOINT Spine1
		{
			OFFSET	 0.000000	 0.000000	 0.137269
			CHANNELS 3 Zrotation Xrotation Yrotation
			JOINT Spine2
			{
				OFFSET	 0.000000	 0.000000	 0.156879
				CHANNELS 3 Zrotation Xrotation Yrotation
				JOINT LeftShoulder
				{
					OFFSET	 0.080501	-0.002496	 0.160144
					CHANNELS 3 Zrotation Xrotation Yrotation
					JOINT LeftArm
					{
						OFFSET	 0.000000	 0.000000	 0.164363
						CHANNELS 3 Zrotation Xrotation Yrotation
						JOINT LeftForeArm
						{
							OFFSET	 0.000000	 0.000000	 0.364576
							CHANNELS 3 Zrotation Xrotation Yrotation
							JOINT LeftHand
							{
								OFFSET	 0.000000	 0.000000	 0.360812
								CHANNELS 3 Zrotation Xrotation Yrotation
								JOINT LeftHandIndex1
								{
									OFFSET	 0.000000	 0.000000	 0.086006
									CHANNELS 3 Zrotation Xrotation Yrotation
									JOINT LeftHandIndex2
									{
										OFFSET	 0.000000	 0.000000	 0.047236
										CHANNELS 3 Zrotation Xrotation Yrotation
										JOINT LeftHandIndex3
										{
											OFFSET	-0.004284	-0.000551	 0.038166
											CHANNELS 3 Zrotation Xrotation Yrotation
											End Site
											{
												OFFSET	-0.004284	-0.000551	 0.038166
											}
										}
									}
								}
							}
						}
					}
				}
				JOINT Neck
				{
					OFFSET	 0.000000	 0.000000	 0.176489
					CHANNELS 3 Zrotation Xrotation Yrotation
					JOINT Head
					{
						OFFSET	 0.000000	-0.001747	 0.077940
						CHANNELS 3 Zrotation Xrotation Yrotation
						End Site
						{
							OFFSET	 0.000000	-0.001747	 0.077940
						}
					}
				}
				JOINT RightShoulder
				{
					OFFSET	-0.080363	 0.000306	 0.159706
					CHANNELS 3 Zrotation Xrotation Yrotation
					JOINT RightArm
					{
						OFFSET	 0.000000	 0.000000	 0.164196
						CHANNELS 3 Zrotation Xrotation Yrotation
						JOINT RightForeArm
						{
							OFFSET	 0.000000	 0.000000	 0.365611
							CHANNELS 3 Zrotation Xrotation Yrotation
							JOINT RightHand
							{
								OFFSET	 0.000000	 0.000000	 0.360648
								CHANNELS 3 Zrotation Xrotation Yrotation
								JOINT RightHandIndex1
								{
									OFFSET	 0.000000	 0.000000	 0.069977
									CHANNELS 3 Zrotation Xrotation Yrotation
									JOINT RightHandIndex2
									{
										OFFSET	 0.000000	 0.000000	 0.052305
										CHANNELS 3 Zrotation Xrotation Yrotation
										JOINT RightHandIndex3
										{
											OFFSET	 0.009002	-0.000782	 0.042196
											CHANNELS 3 Zrotation Xrotation Yrotation
											End Site
											{
												OFFSET	 0.009002	-0.000782	 0.042196
											}
										}
									}
								}
							}
						}
					}
				}
			}
		}
	}
}
MOTION
Frames:    6
Frame Time: 0.03333334
 0.014057	 0.062816	 1.202284	 4.477948	-1.364009	-2.738608	-5.355864	-13.391540	-170.871100	 0.688624	-38.862270	 0.167875	 46.848480	 80.164730	-50.692180	-2.370496	 31.430290	-0.065752	 1.610901	-28.995310	-175.866300	 10.640190	-52.670830	 9.107380	 18.552490	 74.475280	-15.013160	 2.358330	 33.093570	 0.105401	-6.116884	 8.670727	 2.136034	-2.039705	 2.046660	-1.493766	 3.318640	-2.056357	 1.614177	-93.858090	 58.897460	 175.567800	 24.613020	 44.531270	-21.414200	-1.424235	-2.761906	-24.923510	-0.676615	-18.542510	-6.980072	-4.870554	 19.222770	-2.787538	-3.882863	 21.455770	 2.204108	-4.807230	 5.557657	 0.146258	-0.100522	-5.045732	 0.171605	 1.107473	 1.906129	 2.814566	 89.805340	 61.615200	-179.944700	-20.011840	 51.712610	 14.080070	-1.624629	-1.228688	 6.309620	-4.830053	-4.243362	 0.670885	 6.298491	 25.379880	-0.558559	 1.813739	 45.274220	-6.929046	 0.447972	 24.618600	 3.608146
 0.013717	 0.058119	 1.201946	 4.860387	-1.168320	-2.732119	-5.802454	-13.433900	-170.921200	 0.882088	-38.901540	 0.332435	 47.146610	 80.288990	-51.189110	-2.369848	 31.540320	-0.068236	 0.820150	-29.634170	-175.791400	 10.964210	-52.240810	 9.315953	 24.870760	 77.109640	-21.842780	 2.358715	 33.037040	 0.104087	-6.364376	 8.530929	 2.059980	-2.015948	 2.020996	-1.432238	 3.232252	-2.273478	 1.591656	-93.928370	 58.937920	 175.413100	 25.020890	 44.216230	-21.484120	-1.777801	-2.685386	-25.674390	-0.673613	-18.731810	-7.635842	-4.870248	 19.237380	-2.789914	-3.879792	 21.495090	 2.200985	-4.806527	 5.566000	 0.145770	-0.079557	-5.070766	 0.182290	 1.084301	 1.767409	 2.730268	 89.783280	 61.642630	-179.997200	-19.789550	 51.917520	 13.353580	-1.751387	-1.310289	 6.646875	-4.833875	-4.128373	 0.587404	 6.293805	 24.880980	-0.543413	 1.881867	 44.730110	-6.989873	 0.526042	 24.277190	 3.568387
 0.013125	 0.048579	 1.201315	 5.412953	-0.729288	-2.752683	-6.353673	-13.476570	-170.966600	 1.156996	-38.915740	 0.505244	 47.686150	 80.441160	-51.941080	-2.368903	 31.696690	-0.071784	-0.474590	-30.934330	-175.638400	 11.614430	-51.207370	 9.702175	 39.565410	 80.289750	-37.444810	 2.358963	 33.000630	 0.103240	-6.649907	 8.185282	 1.907934	-1.983700	 2.014853	-1.263374	 3.053108	-2.641778	 1.511124	-94.053380	 58.971790	 175.142200	 25.449900	 43.627480	-21.517650	-2.111632	-2.683615	-27.077410	-0.453228	-19.131620	-8.292836	-4.866882	 19.326930	-2.796457	-3.873145	 21.579910	 2.194235	-4.805021	 5.583696	 0.144733	-0.050771	-5.096354	 0.214386	 0.988159	 1.561496	 2.629005	 89.737160	 61.720090	 179.892600	-19.426270	 52.282240	 12.131110	-2.111767	-1.452552	 7.125963	-4.957969	-3.959984	 0.415554	 6.282629	 24.000690	-0.545328	 1.989896	 43.842590	-7.085942	 0.702645	 23.497110	 3.479857
 0.012509	 0.037773	 1.200643	 5.879970	-0.295367	-2.787306	-6.841863	-13.404300	-171.007100	 1.347726	-38.868590	 0.624442	 48.441480	 80.611630	-52.845500	-2.368110	 31.827810	-0.074755	-1.613051	-32.223130	-175.505200	 12.066730	-49.879140	 9.875026	 61.717380	 81.843440	-60.496360	 2.359055	 32.988370	 0.102952	-6.853730	 7.835113	 1.760150	-1.956837	 2.048531	-1.076693	 2.853556	-2.988086	 1.410365	-94.168660	 58.990620	 174.894000	 25.674510	 42.981910	-21.597970	-2.310646	-2.731284	-28.413000	-0.200880	-19.526310	-8.732735	-4.862823	 19.430620	-2.803258	-3.866615	 21.663070	 2.187604	-4.803555	 5.600992	 0.143719	-0.027054	-5.113642	 0.248339	 0.856393	 1.389038	 2.550052	 89.692500	 61.801090	 179.785100	-19.096080	 52.620370	 10.962160	-2.490558	-1.582954	 7.505849	-5.109412	-3.826445	 0.249246	 6.271207	 23.191420	-0.556715	 2.083218	 43.050860	-7.168530	 0.876152	 22.720210	 3.394821
 0.012075	 0.024295	 1.199847	 6.158359	 0.122592	-2.966890	-7.122068	-13.057350	-170.891400	 1.472490	-38.614350	 0.698878	 49.876320	 80.814600	-54.401990	-2.366891	 32.025760	-0.079264	-2.066185	-33.540050	-175.128500	 12.362000	-48.084060	 9.839294	 75.060760	 81.381860	-74.786380	 2.360094	 32.833530	 0.099361	-6.903567	 7.425594	 1.752328	-1.913067	 2.275681	-0.857867	 2.632402	-3.380010	 1.270967	-94.270160	 58.990470	 174.677500	 25.702230	 42.184680	-21.840210	-2.717102	-2.653364	-29.768000	-0.135480	-20.088580	-8.601128	-4.855054	 19.609620	-2.811084	-3.857885	 21.774060	 2.178739	-4.799067	 5.653771	 0.140631	-0.014532	-5.146486	 0.281678	 0.667898	 1.225044	 2.512788	 89.627300	 61.881130	 179.627800	-18.714210	 52.936520	 9.734384	-3.084983	-1.744567	 7.860468	-5.446783	-3.666563	-0.182401	 6.255588	 22.246440	-0.586173	 2.172423	 42.271350	-7.247107	 1.088991	 21.753150	 3.293196
 0.011606	 0.008601	 1.198896	 6.381680	 0.528691	-3.186005	-7.360904	-12.517580	-170.739500	 1.575381	-38.238310	 0.756819	 51.808870	 81.053740	-56.449080	-2.365549	 32.238960	-0.084133	-2.275892	-34.774760	-174.675800	 12.462150	-45.749510	 9.551715	 80.479770	 80.347550	-81.090530	 2.361359	 32.642070	 0.094935	-6.901117	 7.006843	 1.782297	-1.865524	 2.575543	-0.627090	 2.380477	-3.787858	 1.110663	-94.366460	 58.985250	 174.473200	 25.582770	 41.258940	-22.257250	-3.153763	-2.520634	-30.972740	-0.128611	-20.695300	-8.311181	-4.846364	 19.806470	-2.819074	-3.848672	 21.890940	 2.169368	-4.793829	 5.715466	 0.137007	-0.005260	-5.183073	 0.314314	 0.440748	 1.070416	 2.485285	 89.557790	 61.959750	 179.459000	-18.313220	 53.223900	 8.518978	-3.737157	-1.879403	 8.029566	-5.826312	-3.511570	-0.680225	 6.238638	 21.278990	-0.620136	 2.257425	 41.507290	-7.321617	 1.306547	 20.748760	 3.192448
